<?xml version="1.0" encoding="UTF-8"?>
<svg width="120px" height="36px" viewBox="0 0 120 36" version="1.1" xmlns="http://www.w3.org/2000/svg" xmlns:xlink="http://www.w3.org/1999/xlink">
    <title>logo-white</title>
    <defs>
        <polygon id="path-1" points="0 0.064380531 10.6175823 0.064380531 10.6175823 19.2318584 0 19.2318584"></polygon>
        <polygon id="path-3" points="0.0726238938 0.0438002928 93.7168142 0.0438002928 93.7168142 22.5850487 0.0726238938 22.5850487"></polygon>
    </defs>
    <g id="Blog" stroke="none" stroke-width="1" fill="none" fill-rule="evenodd">
        <g id="Artboard-Copy-4" transform="translate(-439.000000, -13.000000)">
            <g id="logo-white" transform="translate(439.000000, 13.000000)">
                <path d="M10.2912876,35.7108305 C11.2783673,35.7133407 12.0805354,34.9148894 12.082792,33.9278097 L8.49925221,33.9278097 C8.50164159,34.9150221 9.30380973,35.7133407 10.2910221,35.7108305 L10.2912876,35.7108305" id="Fill-1" fill="#FC7028" fill-rule="nonzero"></path>
                <path d="M13.8224071,31.2490088 L6.7599292,31.2490088 C6.19749558,31.2490088 5.74152212,31.705115 5.74152212,32.2675487 C5.74152212,32.830115 6.19749558,33.2860885 6.7599292,33.2860885 L13.8224071,33.2860885 C14.3849735,33.2862212 14.8409469,32.830115 14.8410796,32.2676814 C14.8410796,31.7052478 14.3851062,31.2491416 13.8225398,31.2490088 L13.8224071,31.2490088" id="Fill-3" fill="#FC7028" fill-rule="nonzero"></path>
                <path d="M11.6953938,1.32743363e-05 C7.27477434,5.56992478 18.2653938,9.22063274 10.2638894,14.316385 C13.9504381,12.3807212 17.5314558,10.6509425 16.4782699,7.08625221 C14.616677,4.43616372 12.0126504,3.62563274 11.6953938,1.32743363e-05" id="Fill-5" fill="#FC7028" fill-rule="nonzero"></path>
                <path d="M6.52721681,16.6069248 C2.72863274,19.397323 1.97226106,23.3674115 3.96274779,25.5787832 C4.93562389,26.3344912 5.45411947,27.3915265 5.45411947,28.6196681 C5.45411947,29.7150664 6.27473894,30.6073673 7.39270354,30.6073673 L13.1894735,30.6073673 C14.3074381,30.6073673 15.1281903,29.7150664 15.1281903,28.6196681 C15.127792,28.3714381 15.1498274,28.1236062 15.1942965,27.8792257 C8.01394248,30.342677 5.87000442,22.8149336 13.1716858,19.1610398 C18.728323,16.3804646 20.2454469,11.8259071 16.5168186,7.1374115 C19.7480575,12.627677 11.0266858,13.6069248 6.52721681,16.6069248" id="Fill-7" fill="#FC7028" fill-rule="nonzero"></path>
                <path d="M19.0235044,12.0883407 C19.067177,13.4764381 18.6901858,14.7815708 17.9335487,15.9491814 C18.241115,16.6020133 18.2494779,17.3563938 17.9563805,18.0158628 C19.1891681,16.5097566 19.7985929,14.7579425 19.5479735,13.0426327 C19.3902743,12.7155531 19.2150531,12.396969 19.0235044,12.0884735" id="Fill-9" fill="#FC7028" fill-rule="nonzero"></path>
                <path d="M15.3507611,21.0963451 C9.40213274,24.5139558 12.156292,29.0804602 16.6572212,25.5496195 C19.1351416,23.6154159 20.5831062,20.6468761 20.5822915,17.5035133 C20.587354,15.9773628 20.2455398,14.4700619 19.5824867,13.0955044 C20.3062035,15.7973628 18.437177,19.3230265 15.3507611,21.0963451" id="Fill-11" fill="#FC7028" fill-rule="nonzero"></path>
                <path d="M2.86465487,17.5078673 C1.62297345,19.2064513 1.0650531,21.3255664 2.20279646,23.8159646 C2.33182301,23.9826903 2.46602655,24.1451681 2.60500885,24.303531 C1.98138053,22.5732212 2.39567257,20.7501239 3.33337168,19.218 C3.01492035,18.728708 2.86558407,18.1552566 2.86465487,17.5078673" id="Fill-13" fill="#FC7028" fill-rule="nonzero"></path>
                <g id="Fill-15-Clipped" transform="translate(0.000000, 4.516195)">
                    <mask id="mask-2" fill="white">
                        <use xlink:href="#path-1"></use>
                    </mask>
                    <g id="path-1"></g>
                    <path d="M4.8729823,4.26756637 C1.92913274,6.04115044 -4.34710799e-05,9.30783186 -4.34710799e-05,12.9872124 C-0.00294690265,15.2482301 0.747982301,17.445531 2.1340885,19.2318584 C-0.701044248,13.9535841 4.23833628,10.4133186 7.43692035,8.81057522 C12.333823,5.99721239 10.3268761,3.00584071 9.52085841,0.064380531 C9.59214159,6.3869469 1.32753982,7.86384956 4.8729823,4.26756637" id="Fill-15" fill="#FC7028" fill-rule="nonzero" mask="url(#mask-2)"></path>
                </g>
                <g id="Fill-18-Clipped-Copy" transform="translate(25.752212, 11.020619)">
                    <mask id="mask-4" fill="white">
                        <use xlink:href="#path-3"></use>
                    </mask>
                    <g id="path-3"></g>
                    <path d="M11.1046593,16.1217743 C10.0794823,17.0447389 8.81032301,17.5061549 7.32160619,17.5061549 L0.0726238938,17.5061549 L0.0726238938,0.505314159 L6.80895133,0.505314159 C8.24895133,0.505314159 9.49395133,0.966862832 10.4944381,1.86540265 C11.4950575,2.76394248 12.0077124,3.9055354 12.0077124,5.28965044 C12.0077124,6.6985885 11.4707655,7.83991593 10.3967389,8.69000442 C11.8857212,9.54009292 12.6419602,10.8514646 12.6419602,12.5759336 C12.6419602,14.0088982 12.1295708,15.1989425 11.1043938,16.1216416 L11.1046593,16.1217743 Z M3.44085398,3.63832301 L3.44085398,7.3785 L6.80895133,7.3785 C7.32160619,7.3785 7.76098673,7.20845575 8.12696018,6.84420796 C8.46850885,6.47996018 8.6394823,6.04270354 8.6394823,5.50854425 C8.6394823,4.97411947 8.46864159,4.53712832 8.12696018,4.17261504 C7.78527876,3.80823451 7.34589823,3.63832301 6.80895133,3.63832301 L3.44085398,3.63832301 Z M7.32160619,14.3730133 C7.88297788,14.3730133 8.37094248,14.1788097 8.73718142,13.7902699 C9.10328761,13.4258894 9.2985531,12.9401814 9.2985531,12.3573053 C9.30611947,11.8246062 9.10461504,11.3100929 8.73718142,10.9243407 C8.37107522,10.5600929 7.88297788,10.3657566 7.32160619,10.3657566 L3.44085398,10.3657566 L3.44085398,14.3730133 L7.32160619,14.3730133 Z M17.7430221,7.45137611 C18.3288186,5.89708407 19.5736858,5.11987168 21.4529336,5.11987168 L21.4529336,8.61712832 C20.501031,8.4955354 19.6224027,8.69000442 18.8658982,9.19987168 C18.1093938,9.70987168 17.7432876,10.5358009 17.7432876,11.7015531 L17.7432876,17.5061549 L14.5942168,17.5061549 L14.5942168,5.36279204 L17.7427566,5.36279204 L17.7430221,7.45137611 Z M23.3093496,1.98699558 C23.3093496,1.47712832 23.5047478,1.01531416 23.8707212,0.626774336 C24.2612522,0.238234513 24.7249248,0.0438982301 25.2375796,0.0438982301 C25.7616504,0.0385884956 26.2648805,0.249384956 26.6287301,0.626774336 C26.9948363,1.01531416 27.1901018,1.47686283 27.1901018,1.98699558 C27.1901018,2.49699558 26.9947035,2.9584115 26.6287301,3.34695133 C26.2561195,3.70801327 25.7567389,3.9085885 25.2378451,3.90560334 C24.7250575,3.90560334 24.261385,3.71119912 23.8709867,3.34681858 C23.5047478,2.95854425 23.309615,2.49673009 23.309615,1.98699558 L23.3093496,1.98699558 Z M23.675323,17.5061549 L26.8239956,17.5061549 L26.8239956,5.36292478 L23.675323,5.36292478 L23.675323,17.5061549 Z M38.7738186,5.24425221 L41.8494823,5.24425221 L41.8494823,16.8048717 C41.8494823,18.6748274 41.2148363,20.107792 39.9702345,21.1035 C38.7256327,22.0993407 37.236385,22.5850487 35.4789956,22.5850487 C32.7211195,22.5850487 30.7927566,21.589208 29.6945708,19.6220841 L32.3795708,18.0920841 C32.9896593,19.2334115 34.0391283,19.7919956 35.5768274,19.7919956 C36.5775796,19.7919956 37.3585088,19.5249159 37.9198805,19.0149159 C38.4812522,18.5049159 38.7739513,17.7518628 38.7739513,16.8048717 L38.7739513,15.4933673 C37.8468717,16.7319956 36.5531549,17.3391637 34.8690398,17.3391637 C33.136208,17.3391637 31.6960752,16.7319956 30.5244823,15.5418186 C29.3773142,14.303323 28.7916504,12.8460664 28.7916504,11.1214646 C28.7916504,9.39686283 29.3773142,7.93987168 30.5489071,6.72566814 C31.7206327,5.51133186 33.1605,4.90389823 34.8690398,4.90389823 C36.5531549,4.90389823 37.8470044,5.51119912 38.7739513,6.74982743 L38.7738186,5.24425221 Z M35.3570044,7.81854425 C34.3808097,7.81854425 33.5508982,8.13434071 32.8918274,8.76580088 C32.2574469,9.37296903 31.9400575,10.1504469 31.9400575,11.1215973 C31.9400575,12.092615 32.2574469,12.8945177 32.9161195,13.5016858 C33.5508982,14.1332788 34.3562522,14.4488097 35.3568717,14.4488097 C36.3576239,14.4488097 37.1631106,14.1332788 37.7980221,13.5016858 C38.4566947,12.8946504 38.7736858,12.0930133 38.7736858,11.1215973 C38.7736858,10.1501814 38.4569602,9.37296903 37.7980221,8.76580088 C37.1631106,8.13434071 36.3576239,7.81854425 35.3570044,7.81854425 L35.3570044,7.81854425 Z M55.6577124,10.0502257 L55.6577124,17.5061549 L52.5090398,17.5061549 L52.5090398,10.4386327 C52.5090398,9.63712832 52.2897478,9.02996018 51.8502345,8.56867699 C51.4350133,8.15557965 50.8492168,7.93708407 50.0927124,7.93708407 C48.311031,7.93708407 47.4081106,8.93279204 47.4081106,10.9486327 L47.4081106,17.5061549 L44.2597035,17.5061549 L44.2597035,0.505314159 L47.4081106,0.505314159 L47.4081106,6.72274779 C48.1647478,5.58142035 49.3603673,5.02270354 51.0444823,5.02270354 C52.3873142,5.02270354 53.4855,5.45996018 54.3394381,6.3585 C55.2181991,7.25717257 55.6575796,8.47150885 55.6575796,10.0502257 L55.6577124,10.0502257 Z M65.4065177,8.37434071 L62.6485088,8.37434071 L62.6485088,13.4261549 C62.6485088,14.0334558 62.8927566,14.3977035 63.3561637,14.567615 C63.6978451,14.689208 64.3813407,14.7135 65.4065177,14.6647832 L65.4065177,17.5064204 C63.2826239,17.7493407 61.7450575,17.5548717 60.8421372,16.8991195 C59.9394823,16.267792 59.499969,15.1019071 59.499969,13.4261549 L59.499969,8.37434071 L57.3766062,8.37434071 L57.3766062,5.36265929 L59.499969,5.36265929 L59.499969,0.505181416 L62.6485088,0.505181416 L62.6485088,5.36265929 L65.4065177,5.36265929 L65.4065177,8.37434071 Z M74.8772257,3.17664159 C73.1443938,3.05504867 72.289792,3.7595177 72.289792,5.24106637 L72.289792,5.36239381 L74.8772257,5.36239381 L74.8772257,8.37434071 L72.289792,8.37434071 L72.289792,17.5061549 L69.1416504,17.5061549 L69.1416504,8.37434071 L67.3841283,8.37434071 L67.3841283,5.36265929 L69.1416504,5.36265929 L69.1416504,5.24133186 C69.1416504,3.51686283 69.6298805,2.20549115 70.5815177,1.33111062 C71.5578451,0.432438053 72.9978451,0.0437654867 74.8770929,0.165225664 L74.8772257,3.17664159 Z M85.125146,5.24425221 L88.2738186,5.24425221 L88.2738186,17.3874823 L85.125146,17.3874823 L85.125146,16.0276593 C84.3687743,17.1689867 83.1728894,17.7277035 81.4890398,17.7277035 C80.1460752,17.7277035 79.0480221,17.2905796 78.1691283,16.3919071 C77.3150575,15.4933673 76.8758097,14.2546062 76.8758097,12.7003142 L76.8758097,5.24411947 L80.0242168,5.24411947 L80.0242168,12.3116416 C80.0242168,13.1130133 80.2437743,13.7201814 80.6830221,14.1815973 C81.0983761,14.5944292 81.6840398,14.8130575 82.4405442,14.8130575 C84.2222257,14.8130575 85.125146,13.8173496 85.125146,11.8015088 L85.125146,5.24425221 Z M90.5681549,17.5061549 L93.7168274,17.5061549 L93.7168274,0.505314159 L90.5681549,0.505314159 L90.5681549,17.5061549 Z" id="Fill-18" fill="#FFFFFF" fill-rule="nonzero" mask="url(#mask-4)"></path>
                </g>
            </g>
        </g>
    </g>
</svg>