<svg width="161" height="49" viewBox="0 0 161 49" fill="none" xmlns="http://www.w3.org/2000/svg">
<path d="M13.7217 48.6144C15.0378 48.6178 16.1074 47.5532 16.1104 46.2371H11.3323C11.3355 47.5533 12.4051 48.6178 13.7214 48.6144H13.7217Z" fill="#FC7028"/>
<path d="M18.4298 42.6653H9.01321C8.2633 42.6653 7.65533 43.2735 7.65533 44.0234C7.65533 44.7735 8.2633 45.3814 9.01321 45.3814H18.4298C19.1799 45.3816 19.7879 44.7735 19.7881 44.0236C19.7881 43.2736 19.1801 42.6655 18.43 42.6653H18.4298Z" fill="#FC7028"/>
<path d="M15.5939 1C9.69969 8.42655 24.3539 13.2942 13.6852 20.0885C18.6006 17.5076 23.3753 15.2012 21.971 10.4483C19.4889 6.91487 16.0169 5.83416 15.5939 1Z" fill="#FC7028"/>
<path d="M8.70297 23.1426C3.6382 26.8631 2.6297 32.1565 5.28368 35.105C6.58085 36.1126 7.27218 37.522 7.27218 39.1595C7.27218 40.6201 8.36634 41.8098 9.85696 41.8098H17.586C19.0766 41.8098 20.1709 40.6201 20.1709 39.1595C20.1704 38.8286 20.1998 38.4981 20.2591 38.1723C10.6853 41.4569 7.82669 31.4199 17.5623 26.548C24.9711 22.8406 26.9939 16.7679 22.0224 10.5165C26.3308 17.8369 14.7023 19.1426 8.70297 23.1426Z" fill="#FC7028"/>
<path d="M25.3647 17.1178C25.4229 18.9686 24.9202 20.7087 23.9114 22.2656C24.3215 23.136 24.3326 24.1418 23.9418 25.0211C25.5855 23.013 26.3981 20.6772 26.0639 18.3902C25.8537 17.9541 25.62 17.5293 25.3647 17.1179" fill="#FC7028"/>
<path d="M20.4677 29.1285C12.5362 33.6853 16.2084 39.7739 22.2097 35.0662C25.5136 32.4872 27.4442 28.5292 27.4431 24.338C27.4498 22.3031 26.9941 20.2934 26.11 18.4607C27.075 22.0631 24.5829 26.764 20.4677 29.1285Z" fill="#FC7028"/>
<path d="M3.81952 24.3438C2.16395 26.6086 1.42005 29.4341 2.93704 32.7546C3.10908 32.9769 3.28802 33.1935 3.47333 33.4047C2.64182 31.0976 3.19421 28.6668 4.44448 26.624C4.01988 25.9716 3.82076 25.207 3.81952 24.3438Z" fill="#FC7028"/>
<mask id="mask0" mask-type="alpha" maskUnits="userSpaceOnUse" x="0" y="7" width="15" height="26">
<path d="M0 7.10742H14.1568V32.6641H0V7.10742Z" fill="white"/>
</mask>
<g mask="url(#mask0)">
<path d="M6.49732 12.7117C2.57219 15.0764 -4.98513e-05 19.432 -4.98513e-05 24.3379C-0.00392109 27.3526 0.997318 30.2823 2.84546 32.6641C-0.934717 25.6264 5.65112 20.906 9.9159 18.769C16.4451 15.0179 13.7692 11.0294 12.6945 7.10742C12.7895 15.5375 1.77006 17.5067 6.49732 12.7117Z" fill="#FC7028"/>
</g>
<path d="M49.1425 35.4373C47.7756 36.6679 46.0834 37.2831 44.0984 37.2831H34.4331V14.6154H43.4149C45.3349 14.6154 46.9949 15.2308 48.3289 16.4288C49.663 17.6269 50.3466 19.149 50.3466 20.9945C50.3466 22.8731 49.6306 24.3948 48.1986 25.5283C50.1839 26.6617 51.1922 28.4102 51.1922 30.7095C51.1922 32.6201 50.509 34.2069 49.1421 35.4371L49.1425 35.4373ZM38.9241 18.7927V23.7796H43.4149C44.0984 23.7796 44.6843 23.5529 45.1722 23.0672C45.6276 22.5815 45.8556 21.9985 45.8556 21.2863C45.8556 20.5738 45.6278 19.9911 45.1722 19.5051C44.7166 19.0192 44.1308 18.7927 43.4149 18.7927H38.9241ZM44.0984 33.1056C44.8469 33.1056 45.4975 32.8467 45.9858 32.3286C46.474 31.8428 46.7343 31.1952 46.7343 30.418C46.7444 29.7077 46.4758 29.0217 45.9858 28.5074C45.4977 28.0217 44.8469 27.7626 44.0984 27.7626H38.9241V33.1056H44.0984ZM57.9936 23.8768C58.7747 21.8044 60.4345 20.7681 62.9402 20.7681V25.4311C61.671 25.269 60.4995 25.5283 59.4908 26.2081C58.4821 26.8881 57.994 27.9893 57.994 29.5437V37.2831H53.7952V21.092H57.9933L57.9936 23.8768ZM65.4154 16.5909C65.4154 15.9111 65.6759 15.2954 66.1639 14.7773C66.6846 14.2592 67.3028 14.0001 67.9864 14.0001C68.6851 13.9931 69.3561 14.2741 69.8412 14.7773C70.3294 15.2954 70.5897 15.9108 70.5897 16.5909C70.5897 17.2709 70.3292 17.8861 69.8412 18.4042C69.3444 18.8856 68.6786 19.1531 67.9867 19.1491C67.303 19.1491 66.6848 18.8899 66.1643 18.404C65.6759 17.8863 65.4158 17.2706 65.4158 16.5909H65.4154ZM65.9034 37.2831H70.1016V21.0922H65.9034V37.2831ZM86.0347 20.9339H90.1356V36.3481C90.1356 38.8414 89.2894 40.752 87.6299 42.0796C85.9704 43.4074 83.9848 44.055 81.6416 44.055C77.9644 44.055 75.3933 42.7272 73.929 40.1044L77.509 38.0644C78.3225 39.5861 79.7218 40.3309 81.772 40.3309C83.1064 40.3309 84.1476 39.9748 84.8961 39.2948C85.6446 38.6148 86.0349 37.6108 86.0349 36.3481V34.5994C84.7988 36.2509 83.0738 37.0605 80.8283 37.0605C78.5179 37.0605 76.5977 36.2509 75.0356 34.664C73.506 33.0127 72.7251 31.0697 72.7251 28.7702C72.7251 26.4707 73.506 24.5281 75.0681 22.9092C76.6305 21.29 78.5503 20.4801 80.8283 20.4801C83.0738 20.4801 84.7989 21.2899 86.0349 22.9414L86.0347 20.9339ZM81.4789 24.3663C80.1773 24.3663 79.0708 24.7874 78.192 25.6293C77.3462 26.4389 76.923 27.4755 76.923 28.7704C76.923 30.0651 77.3462 31.1343 78.2244 31.9438C79.0708 32.786 80.1446 33.2067 81.4788 33.2067C82.8131 33.2067 83.8871 32.786 84.7336 31.9438C85.6119 31.1345 86.0345 30.0656 86.0345 28.7704C86.0345 27.4752 85.6122 26.4389 84.7336 25.6293C83.8871 24.7874 82.8131 24.3663 81.4789 24.3663ZM108.547 27.3419V37.2831H104.348V27.8598C104.348 26.7911 104.056 25.9815 103.47 25.3665C102.916 24.8157 102.135 24.5244 101.127 24.5244C98.751 24.5244 97.5471 25.852 97.5471 28.5398V37.2831H93.3492V14.6154H97.5471V22.9053C98.5559 21.3835 100.15 20.6385 102.396 20.6385C104.186 20.6385 105.65 21.2215 106.789 22.4196C107.961 23.6178 108.546 25.2369 108.546 27.3419H108.547ZM121.545 25.1074H117.868V31.8431C117.868 32.6529 118.193 33.1385 118.811 33.3651C119.267 33.5272 120.178 33.5596 121.545 33.4946V37.2835C118.713 37.6074 116.663 37.3481 115.459 36.4738C114.256 35.632 113.67 34.0775 113.67 31.8431V25.1074H110.838V21.0918H113.67V14.6152H117.868V21.0918H121.545V25.1074ZM134.173 18.1771C131.862 18.015 130.723 18.9543 130.723 20.9297V21.0915H134.173V25.1074H130.723V37.2831H126.525V25.1074H124.182V21.0918H126.525V20.93C126.525 18.6308 127.176 16.8823 128.445 15.7164C129.747 14.5182 131.667 14 134.172 14.1619L134.173 18.1771ZM147.836 20.9339H152.035V37.1249H147.836V35.3118C146.828 36.8336 145.233 37.5785 142.988 37.5785C141.198 37.5785 139.734 36.9957 138.562 35.7975C137.423 34.5994 136.837 32.9477 136.837 30.8754V20.9338H141.035V30.3571C141.035 31.4256 141.328 32.2352 141.914 32.8504C142.467 33.4008 143.248 33.6923 144.257 33.6923C146.633 33.6923 147.836 32.3647 147.836 29.6769V20.9339ZM155.094 37.2831H159.292V14.6154H155.094V37.2831Z" fill="#1E1E1E"/>
</svg>
